<svg xmlns="http://www.w3.org/2000/svg" xmlns:xlink="http://www.w3.org/1999/xlink" version="1.1" width="26" height="26" viewBox="0 0 256 256" xml:space="preserve">

<defs>
</defs>
<g style="stroke: none; stroke-width: 0; stroke-dasharray: none; stroke-linecap: butt; stroke-linejoin: miter; stroke-miterlimit: 10; fill: none; fill-rule: nonzero; opacity: 1;" transform="translate(1.4065934065934016 1.4065934065934016) scale(2.81 2.81)" >
	<path d="M 18.868 34.763 H 14.77 c -1.791 0 -3.248 1.457 -3.248 3.248 v 4.099 c 0 1.791 1.457 3.248 3.248 3.248 h 4.099 c 1.791 0 3.248 -1.457 3.248 -3.248 v -4.099 C 22.116 36.22 20.659 34.763 18.868 34.763 z M 20.116 42.109 c 0 0.688 -0.56 1.248 -1.248 1.248 H 14.77 c -0.688 0 -1.248 -0.56 -1.248 -1.248 v -4.099 c 0 -0.688 0.56 -1.248 1.248 -1.248 h 4.099 c 0.688 0 1.248 0.56 1.248 1.248 V 42.109 z" style="stroke: none; stroke-width: 1; stroke-dasharray: none; stroke-linecap: butt; stroke-linejoin: miter; stroke-miterlimit: 10; fill: rgb(0,0,0); fill-rule: nonzero; opacity: 1;" transform=" matrix(1 0 0 1 0 0) " stroke-linecap="round" />
	<path d="M 35.099 45.357 h 4.099 c 1.791 0 3.248 -1.457 3.248 -3.248 v -4.099 c 0 -1.791 -1.457 -3.248 -3.248 -3.248 h -4.099 c -1.791 0 -3.248 1.457 -3.248 3.248 v 4.099 C 31.852 43.9 33.309 45.357 35.099 45.357 z M 33.852 38.011 c 0 -0.688 0.56 -1.248 1.248 -1.248 h 4.099 c 0.688 0 1.248 0.56 1.248 1.248 v 4.099 c 0 0.688 -0.56 1.248 -1.248 1.248 h -4.099 c -0.688 0 -1.248 -0.56 -1.248 -1.248 V 38.011 z" style="stroke: none; stroke-width: 1; stroke-dasharray: none; stroke-linecap: butt; stroke-linejoin: miter; stroke-miterlimit: 10; fill: rgb(0,0,0); fill-rule: nonzero; opacity: 1;" transform=" matrix(1 0 0 1 0 0) " stroke-linecap="round" />
	<path d="M 55.429 45.357 h 4.099 c 1.791 0 3.248 -1.457 3.248 -3.248 v -4.099 c 0 -1.791 -1.457 -3.248 -3.248 -3.248 h -4.099 c -1.791 0 -3.248 1.457 -3.248 3.248 v 4.099 C 52.181 43.9 53.638 45.357 55.429 45.357 z M 54.181 38.011 c 0 -0.688 0.56 -1.248 1.248 -1.248 h 4.099 c 0.688 0 1.248 0.56 1.248 1.248 v 4.099 c 0 0.688 -0.56 1.248 -1.248 1.248 h -4.099 c -0.688 0 -1.248 -0.56 -1.248 -1.248 V 38.011 z" style="stroke: none; stroke-width: 1; stroke-dasharray: none; stroke-linecap: butt; stroke-linejoin: miter; stroke-miterlimit: 10; fill: rgb(0,0,0); fill-rule: nonzero; opacity: 1;" transform=" matrix(1 0 0 1 0 0) " stroke-linecap="round" />
	<path d="M 18.868 52.44 H 14.77 c -1.791 0 -3.248 1.457 -3.248 3.248 v 4.099 c 0 1.791 1.457 3.248 3.248 3.248 h 4.099 c 1.791 0 3.248 -1.457 3.248 -3.248 v -4.099 C 22.116 53.897 20.659 52.44 18.868 52.44 z M 20.116 59.787 c 0 0.688 -0.56 1.248 -1.248 1.248 H 14.77 c -0.688 0 -1.248 -0.56 -1.248 -1.248 v -4.099 c 0 -0.688 0.56 -1.248 1.248 -1.248 h 4.099 c 0.688 0 1.248 0.56 1.248 1.248 V 59.787 z" style="stroke: none; stroke-width: 1; stroke-dasharray: none; stroke-linecap: butt; stroke-linejoin: miter; stroke-miterlimit: 10; fill: rgb(0,0,0); fill-rule: nonzero; opacity: 1;" transform=" matrix(1 0 0 1 0 0) " stroke-linecap="round" />
	<path d="M 89 50.76 H 74.297 V 26.548 V 16.127 c 0 -1.811 -1.474 -3.285 -3.284 -3.285 h -9.158 v -2.151 c 0 -0.552 -0.447 -1 -1 -1 s -1 0.448 -1 1 v 2.151 h -9.854 v -2.151 c 0 -0.552 -0.447 -1 -1 -1 s -1 0.448 -1 1 v 2.151 h -9.853 v -2.151 c 0 -0.552 -0.448 -1 -1 -1 s -1 0.448 -1 1 v 2.151 h -9.853 v -2.151 c 0 -0.552 -0.448 -1 -1 -1 s -1 0.448 -1 1 v 2.151 h -9.853 v -2.151 c 0 -0.552 -0.448 -1 -1 -1 s -1 0.448 -1 1 v 2.151 H 3.285 C 1.474 12.843 0 14.316 0 16.127 v 10.421 v 43.657 c 0 1.812 1.474 3.285 3.285 3.285 h 26.981 v 5.817 c 0 0.553 0.448 1 1 1 H 89 c 0.553 0 1 -0.447 1 -1 V 51.76 C 90 51.207 89.553 50.76 89 50.76 z M 2 16.127 c 0 -0.708 0.576 -1.285 1.285 -1.285 h 9.158 v 2.151 c 0 0.552 0.448 1 1 1 s 1 -0.448 1 -1 v -2.151 h 9.853 v 2.151 c 0 0.552 0.448 1 1 1 s 1 -0.448 1 -1 v -2.151 h 9.853 v 2.151 c 0 0.552 0.448 1 1 1 s 1 -0.448 1 -1 v -2.151 h 9.853 v 2.151 c 0 0.552 0.447 1 1 1 s 1 -0.448 1 -1 v -2.151 h 9.854 v 2.151 c 0 0.552 0.447 1 1 1 s 1 -0.448 1 -1 v -2.151 h 9.158 c 0.708 0 1.284 0.576 1.284 1.285 v 9.421 H 2 V 16.127 z M 3.285 71.49 C 2.576 71.49 2 70.914 2 70.205 V 27.548 h 70.297 V 50.76 H 31.266 c -0.552 0 -1 0.447 -1 1 v 19.73 H 3.285 z M 88 78.308 H 32.266 V 52.76 H 88 V 78.308 z" style="stroke: none; stroke-width: 1; stroke-dasharray: none; stroke-linecap: butt; stroke-linejoin: miter; stroke-miterlimit: 10; fill: rgb(0,0,0); fill-rule: nonzero; opacity: 1;" transform=" matrix(1 0 0 1 0 0) " stroke-linecap="round" />
	<path d="M 60.133 55.539 c -5.512 0 -9.995 4.483 -9.995 9.995 c 0 5.511 4.483 9.994 9.995 9.994 c 5.511 0 9.994 -4.483 9.994 -9.994 C 70.127 60.022 65.644 55.539 60.133 55.539 z M 60.133 73.528 c -4.408 0 -7.995 -3.586 -7.995 -7.994 s 3.587 -7.995 7.995 -7.995 s 7.994 3.587 7.994 7.995 S 64.541 73.528 60.133 73.528 z" style="stroke: none; stroke-width: 1; stroke-dasharray: none; stroke-linecap: butt; stroke-linejoin: miter; stroke-miterlimit: 10; fill: rgb(0,0,0); fill-rule: nonzero; opacity: 1;" transform=" matrix(1 0 0 1 0 0) " stroke-linecap="round" />
	<path d="M 59.792 62.167 c 0.293 -0.109 0.609 -0.1 0.893 0.03 c 0.284 0.129 0.5 0.36 0.609 0.652 c 0.193 0.517 0.77 0.778 1.287 0.586 c 0.518 -0.193 0.779 -0.771 0.586 -1.287 c -0.297 -0.793 -0.885 -1.422 -1.654 -1.771 c -0.124 -0.056 -0.252 -0.09 -0.38 -0.13 v -0.363 c 0 -0.553 -0.447 -1 -1 -1 s -1 0.447 -1 1 v 0.399 c -0.014 0.005 -0.028 0.006 -0.042 0.011 c -0.793 0.297 -1.422 0.885 -1.771 1.655 c -0.351 0.77 -0.38 1.63 -0.083 2.423 c 0.353 0.938 1.108 1.64 2.012 1.902 l 1.145 0.418 c 0.356 0.104 0.635 0.361 0.764 0.705 c 0.226 0.603 -0.081 1.277 -0.683 1.503 s -1.276 -0.08 -1.503 -0.683 c -0.195 -0.518 -0.774 -0.776 -1.288 -0.585 c -0.518 0.194 -0.778 0.771 -0.585 1.288 c 0.359 0.953 1.13 1.633 2.035 1.912 v 0.351 c 0 0.553 0.447 1 1 1 s 1 -0.447 1 -1 v -0.399 c 0.014 -0.005 0.028 -0.006 0.042 -0.012 c 1.636 -0.613 2.467 -2.442 1.854 -4.078 c -0.353 -0.939 -1.108 -1.641 -2.011 -1.901 l -1.144 -0.417 c -0.356 -0.105 -0.636 -0.363 -0.765 -0.707 c -0.109 -0.292 -0.099 -0.609 0.03 -0.894 C 59.269 62.493 59.5 62.276 59.792 62.167 z" style="stroke: none; stroke-width: 1; stroke-dasharray: none; stroke-linecap: butt; stroke-linejoin: miter; stroke-miterlimit: 10; fill: rgb(0,0,0); fill-rule: nonzero; opacity: 1;" transform=" matrix(1 0 0 1 0 0) " stroke-linecap="round" />
	<path d="M 69.785 56.539 c 0 0.553 0.447 1 1 1 h 9.002 c 0.348 1.228 1.316 2.197 2.545 2.544 v 10.901 c -1.229 0.347 -2.197 1.316 -2.545 2.544 h -9.002 c -0.553 0 -1 0.447 -1 1 s 0.447 1 1 1 h 9.864 c 0.553 0 1 -0.447 1 -1 c 0 -0.928 0.755 -1.682 1.683 -1.682 c 0.553 0 1 -0.447 1 -1 V 59.221 c 0 -0.553 -0.447 -1 -1 -1 c -0.928 0 -1.683 -0.754 -1.683 -1.682 c 0 -0.553 -0.447 -1 -1 -1 h -9.864 C 70.232 55.539 69.785 55.986 69.785 56.539 z" style="stroke: none; stroke-width: 1; stroke-dasharray: none; stroke-linecap: butt; stroke-linejoin: miter; stroke-miterlimit: 10; fill: rgb(0,0,0); fill-rule: nonzero; opacity: 1;" transform=" matrix(1 0 0 1 0 0) " stroke-linecap="round" />
	<path d="M 49.479 73.528 h -9.002 c -0.347 -1.228 -1.316 -2.196 -2.543 -2.544 V 60.083 c 1.228 -0.348 2.197 -1.316 2.543 -2.544 h 9.002 c 0.553 0 1 -0.447 1 -1 s -0.447 -1 -1 -1 h -9.864 c -0.552 0 -1 0.447 -1 1 c 0 0.928 -0.754 1.682 -1.682 1.682 c -0.552 0 -1 0.447 -1 1 v 12.626 c 0 0.553 0.448 1 1 1 c 0.927 0 1.682 0.754 1.682 1.682 c 0 0.553 0.448 1 1 1 h 9.864 c 0.553 0 1 -0.447 1 -1 S 50.032 73.528 49.479 73.528 z" style="stroke: none; stroke-width: 1; stroke-dasharray: none; stroke-linecap: butt; stroke-linejoin: miter; stroke-miterlimit: 10; fill: rgb(0,0,0); fill-rule: nonzero; opacity: 1;" transform=" matrix(1 0 0 1 0 0) " stroke-linecap="round" />
</g>
</svg>